<svg width="36" height="36" viewBox="0 0 36 36" fill="none" xmlns="http://www.w3.org/2000/svg">
<path d="M36 32C36 34.209 34.209 36 32 36H4C1.791 36 0 34.209 0 32V4C0 1.791 1.791 0 4 0H32C34.209 0 36 1.791 36 4V32Z" fill="#EA5656"/>
<path d="M21.529 18.006L29.767 9.768C30.744 8.792 30.744 7.209 29.767 6.233C28.79 5.256 27.208 5.256 26.232 6.233L17.994 14.471L9.756 6.233C8.78 5.256 7.196 5.256 6.221 6.233C5.244 7.209 5.244 8.792 6.221 9.768L14.459 18.006L6.201 26.264C5.224 27.241 5.224 28.823 6.201 29.799C6.689 30.287 7.329 30.531 7.969 30.531C8.609 30.531 9.249 30.287 9.737 29.799L17.995 21.54L26.233 29.778C26.721 30.266 27.361 30.51 28.001 30.51C28.641 30.51 29.28 30.266 29.769 29.778C30.746 28.801 30.746 27.219 29.769 26.243L21.529 18.006V18.006Z" fill="white"/>
</svg>
