<svg width="36" height="36" viewBox="0 0 36 36" fill="none" xmlns="http://www.w3.org/2000/svg">
<circle cx="18" cy="18" r="18" fill="#A71112"/>
<path d="M13.6426 23.3594C15.2507 21.8164 16.403 20.6771 17.0996 19.9414C17.8027 19.2057 18.3366 18.5221 18.7012 17.8906C19.0723 17.2526 19.2578 16.6016 19.2578 15.9375C19.2578 15.4102 19.0918 14.9935 18.7598 14.6875C18.4277 14.375 17.9818 14.2188 17.4219 14.2188C16.5951 14.2188 15.9212 14.4792 15.4004 15C15.2832 15.1172 15.2018 15.2246 15.1562 15.3223C15.1107 15.4134 15.0879 15.5046 15.0879 15.5957L15.0977 15.7031L14.9609 15.8887L14.8242 15.7812L13.3398 14.6582C13.8216 13.8835 14.4108 13.291 15.1074 12.8809C15.8105 12.4642 16.5951 12.2559 17.4609 12.2559C18.2031 12.2559 18.8704 12.4121 19.4629 12.7246C20.0553 13.0306 20.5176 13.4603 20.8496 14.0137C21.1882 14.5671 21.3574 15.2018 21.3574 15.918C21.3574 16.6276 21.1882 17.3079 20.8496 17.959C20.5176 18.61 20.0781 19.2415 19.5312 19.8535C18.9909 20.4655 18.1934 21.2988 17.1387 22.3535L16.3379 23.1445H20.4102C20.625 23.1445 20.7812 23.1348 20.8789 23.1152C20.9831 23.0892 21.0742 23.0404 21.1523 22.9688H21.377V25H13.6426V23.3594Z" fill="white"/>
</svg>
