<svg width="36" height="36" viewBox="0 0 36 36" fill="none" xmlns="http://www.w3.org/2000/svg">
<circle cx="18" cy="18" r="18" fill="#A71112"/>
<path d="M17.1387 25.3809C15.4329 25.3809 14.1341 24.821 13.2422 23.7012L14.1699 21.8359L14.248 21.6797L14.4531 21.7773C14.4661 21.8099 14.4759 21.8522 14.4824 21.9043C14.4889 21.9499 14.4922 21.9824 14.4922 22.002C14.4987 22.1191 14.515 22.2233 14.541 22.3145C14.5736 22.4056 14.6354 22.5 14.7266 22.5977C15.013 22.8906 15.3516 23.1055 15.7422 23.2422C16.1328 23.3724 16.6048 23.4375 17.1582 23.4375C17.7702 23.4375 18.2454 23.2552 18.584 22.8906C18.929 22.5195 19.1016 22.028 19.1016 21.416C19.1016 20.7454 18.9128 20.2474 18.5352 19.9219C18.1641 19.5898 17.5326 19.4238 16.6406 19.4238C16.3281 19.4238 15.9798 19.4434 15.5957 19.4824V17.6758C15.6934 17.6823 15.8333 17.6855 16.0156 17.6855C17.0443 17.6855 17.7572 17.5195 18.1543 17.1875C18.5579 16.8555 18.7598 16.3932 18.7598 15.8008C18.7598 15.319 18.6165 14.9284 18.3301 14.6289C18.0501 14.3294 17.653 14.1797 17.1387 14.1797C16.6895 14.1797 16.2728 14.2578 15.8887 14.4141C15.5111 14.5703 15.1139 14.8405 14.6973 15.2246L13.4375 13.9355C13.9128 13.3691 14.4661 12.9492 15.0977 12.6758C15.7292 12.3958 16.403 12.2559 17.1191 12.2559C17.8809 12.2559 18.5547 12.4023 19.1406 12.6953C19.7331 12.9818 20.1921 13.3789 20.5176 13.8867C20.8496 14.388 21.0156 14.9512 21.0156 15.5762C21.0156 16.2467 20.8431 16.8262 20.498 17.3145C20.1595 17.7962 19.7526 18.1445 19.2773 18.3594C19.8568 18.5612 20.3451 18.929 20.7422 19.4629C21.1393 19.9902 21.3379 20.6706 21.3379 21.5039C21.3379 22.2266 21.1686 22.8841 20.8301 23.4766C20.498 24.0625 20.0163 24.528 19.3848 24.873C18.7533 25.2116 18.0046 25.3809 17.1387 25.3809Z" fill="white"/>
</svg>
