<svg width="36" height="36" viewBox="0 0 36 36" fill="none" xmlns="http://www.w3.org/2000/svg">
<circle cx="18" cy="18" r="18" fill="#A71112"/>
<path d="M17.5781 25.3809C15.7422 25.3809 14.4043 24.5931 13.5645 23.0176L15.2246 21.748L15.3711 21.6406L15.5078 21.8262C15.5013 21.8587 15.498 21.9108 15.498 21.9824C15.498 22.1582 15.5794 22.347 15.7422 22.5488C15.9505 22.8158 16.1947 23.0241 16.4746 23.1738C16.7546 23.3236 17.0964 23.3984 17.5 23.3984C17.8841 23.3984 18.2259 23.3073 18.5254 23.125C18.8249 22.9362 19.0625 22.6595 19.2383 22.2949C19.4141 21.9303 19.502 21.4844 19.502 20.957C19.502 20.1823 19.3262 19.5801 18.9746 19.1504C18.623 18.7142 18.1576 18.4961 17.5781 18.4961C17.181 18.4961 16.8294 18.5938 16.5234 18.7891C16.2174 18.9779 15.9147 19.2806 15.6152 19.6973L14.1797 19.082L14.6387 12.5391H21.3379V14.4434H16.6016L16.4355 16.8555C16.9238 16.7122 17.3861 16.6406 17.8223 16.6406C18.61 16.6406 19.2969 16.8132 19.8828 17.1582C20.4688 17.5033 20.9212 18.0013 21.2402 18.6523C21.5592 19.3034 21.7188 20.0781 21.7188 20.9766C21.7188 21.8424 21.5495 22.6074 21.2109 23.2715C20.8724 23.9355 20.3906 24.4531 19.7656 24.8242C19.1406 25.1953 18.4115 25.3809 17.5781 25.3809Z" fill="white"/>
</svg>
