<svg width="52" height="31" viewBox="0 0 52 31" fill="none" xmlns="http://www.w3.org/2000/svg">
<path d="M40.0608 15.5C40.0608 8.3545 43.381 4.34 45.981 4.34C46.9248 4.34 49.4 4.34 49.4 4.34C47.6632 1.60425 46.2254 0 39.8892 0H13.8684C4.16 0 0 8.88925 0 15.5C0 22.1107 4.16 31 13.8684 31H39.8892C46.228 31 47.6632 29.3957 49.4 26.66C49.4 26.66 48.581 26.66 45.981 26.66C43.381 26.66 40.0608 22.6455 40.0608 15.5ZM32.9888 20.1371C32.5624 20.7829 31.2312 20.1784 31.2312 20.1784L23.543 16.7219C23.543 16.7219 22.8566 18.4528 22.3288 19.6695C21.7958 20.8863 21.3902 22.2632 19.1854 20.7235C16.978 19.1787 9.8748 12.3277 9.8748 12.3277C9.8748 12.3277 8.9778 11.594 9.425 10.9042C9.8488 10.2532 11.1826 10.8629 11.1826 10.8629L18.8682 14.3143C18.8682 14.3143 19.5572 12.5886 20.085 11.3718C20.618 10.1577 21.0236 8.773 23.2284 10.3178C25.4358 11.8575 32.5364 18.7137 32.5364 18.7137C32.5364 18.7137 33.4334 19.4447 32.9888 20.1371ZM49.0724 10.1473H47.125C45.6716 10.1473 44.252 12.0952 44.252 15.2597C44.252 18.4295 45.6742 20.3747 47.125 20.3747H49.0724C50.5284 20.3747 52 18.4269 52 15.2597C52 12.0952 50.5284 10.1473 49.0724 10.1473Z" fill="white"/>
</svg>
