<svg width="26" height="17" viewBox="0 0 26 17" fill="none" xmlns="http://www.w3.org/2000/svg">
<path d="M10.1816 7.42054C10.1816 7.42054 12.5681 7.23566 12.5681 4.32781C12.5681 1.41619 10.6155 0 8.14076 0H0V16.2573H8.14076C8.14076 16.2573 13.1118 16.4195 13.1118 11.4578C13.1105 11.4566 13.3274 7.42054 10.1816 7.42054ZM3.58728 2.88772H8.14076C8.14076 2.88772 9.24823 2.88772 9.24823 4.5781C9.24823 6.27099 8.59737 6.51624 7.85822 6.51624H3.58728V2.88772ZM7.90994 13.367H3.58728V9.02162H8.14076C8.14076 9.02162 9.79061 8.99898 9.79061 11.2541C9.79061 13.1557 8.55827 13.3532 7.90994 13.367ZM19.7389 4.13412C13.721 4.13412 13.726 10.3812 13.726 10.3812C13.726 10.3812 13.3148 16.5956 19.7389 16.5956C19.7389 16.5956 25.0908 16.9151 25.0908 12.2728H22.3385C22.3385 12.2728 22.4294 14.0223 19.831 14.0223C19.831 14.0223 17.0762 14.2135 17.0762 11.1924H25.1778C25.1791 11.1912 26.0721 4.13412 19.7389 4.13412ZM22.1872 9.02162H17.0484C17.0484 9.02162 17.384 6.51624 19.8007 6.51624C22.2175 6.51624 22.1872 9.02162 22.1872 9.02162ZM22.8267 0.954609H16.3723V2.95941H22.8267V0.954609Z" fill="white"/>
</svg>
