<svg width="53" height="53" viewBox="0 0 53 53" fill="none" xmlns="http://www.w3.org/2000/svg">
    <path d="M45.05 15.7675V43.1976C45.05 44.5809 43.8522 45.2408 42.4 46.2716C41.234 47.1011 39.75 46.0729 39.75 44.7161C39.75 44.7161 39.75 18.4678 39.75 17.914C39.75 17.3548 39.5539 16.8222 38.9179 16.4962C38.2819 16.1703 18.4122 5.72398 18.4122 5.72398C18.0915 5.60473 16.6923 4.72228 14.8267 5.68158C13.0539 6.59318 12.0893 7.58428 11.8428 8.05068L33.5198 19.928C34.0949 20.2301 34.45 20.6965 34.45 21.2954V49.9207C34.45 50.5302 34.0737 51.1821 33.4721 51.4709C33.1965 51.6087 32.8918 51.675 32.5897 51.675C32.2319 51.675 31.8715 51.5875 31.5668 51.3994C30.997 51.0522 10.9657 38.7695 9.64333 37.9718C9.00733 37.5902 8.26268 36.8085 8.24678 36.2281L7.94998 8.97023C7.94998 8.44553 7.88903 7.52068 8.71583 6.23543C10.5629 3.36283 17.0077 0.0953754 20.2698 1.78873L44.1172 13.8595C44.6922 14.1563 45.05 14.7499 45.05 15.7675Z" fill="white"/>
</svg>
