<svg width="53" height="53" viewBox="0 0 53 53" fill="none" xmlns="http://www.w3.org/2000/svg">
<path d="M29.1501 44.4008V50.35H23.8501V44.6711C19.3133 44.4061 15.7252 43.1102 12.6115 39.909L17.1642 35.298C19.4405 37.6035 22.5251 38.372 25.8614 38.372C30.0087 38.372 32.2347 36.7847 32.2347 33.8617C32.2347 32.5818 31.8822 31.5059 31.1217 30.7877C30.4141 30.1226 29.6059 29.7622 27.9364 29.5078L23.5851 28.893C20.5005 28.4319 18.2268 27.4593 16.605 25.8693C14.8878 24.1283 14.0266 21.7724 14.0266 18.6958C14.0266 12.985 17.6888 8.77682 23.8501 7.83077V2.65002H29.1501V7.76982C32.8124 8.15407 35.6823 9.41282 38.1998 11.88L33.7505 16.3373C31.4741 14.1325 28.7446 13.8277 26.3649 13.8277C22.6232 13.8277 20.8026 15.9265 20.8026 18.4387C20.8026 19.3609 21.1074 20.3361 21.8653 21.0516C22.5728 21.7194 23.7361 22.2812 25.2042 22.4853L29.4495 23.1001C32.7382 23.5612 34.8105 24.4834 36.3289 25.917C38.2528 27.7614 39.1114 30.4273 39.1114 33.655C39.1114 39.6175 34.9589 43.3593 29.1501 44.4008Z" fill="white"/>
</svg>
