<svg width="20" height="20" viewBox="0 0 20 20" fill="none" xmlns="http://www.w3.org/2000/svg">
    <g opacity="1">
        <path d="M16.4761 17.4589C15.7777 18.1804 14.6458 18.1804 13.9488 17.4589L10.0007 12.7976L6.05266 17.4573C5.35418 18.1788 4.22233 18.1788 3.52534 17.4573C2.82687 16.7358 2.82687 15.5667 3.52534 14.8467L7.63279 10.0008L3.52386 5.15177C2.82538 4.43027 2.82538 3.26263 3.52386 2.54113C4.22233 1.81962 5.35269 1.81962 6.05117 2.54113L10.0007 7.20398L13.9488 2.54113C14.6473 1.81962 15.7777 1.81962 16.4761 2.54113C17.1746 3.26263 17.1746 4.43181 16.4761 5.15177L12.3687 10.0008L16.4761 14.8467C17.1746 15.5682 17.1746 16.7374 16.4761 17.4589Z" fill="#454545"/>
    </g>
</svg>
