<svg width="82" height="82" viewBox="0 0 82 82" fill="none" xmlns="http://www.w3.org/2000/svg">
<path d="M77.1152 8.96875H4.88477C2.19151 8.96875 0 11.1603 0 13.8535V68.1465C0 70.8397 2.19151 73.0312 4.88477 73.0312H77.1152C79.8085 73.0312 82 70.8397 82 68.1465V13.8535C82 11.1603 79.8085 8.96875 77.1152 8.96875ZM78.7969 68.1465C78.7969 69.0736 78.0424 69.8281 77.1152 69.8281H4.88477C3.95761 69.8281 3.20312 69.0736 3.20312 68.1465V13.8535C3.20312 12.9264 3.95761 12.1719 4.88477 12.1719H77.1152C78.0424 12.1719 78.7969 12.9264 78.7969 13.8535V68.1465Z" fill="#C90708"/>
<path d="M30.5898 20.0727H71.9102C72.7948 20.0727 73.5117 19.3557 73.5117 18.4711C73.5117 17.5871 72.7948 16.8696 71.9102 16.8696H30.5898C29.7052 16.8696 28.9883 17.5871 28.9883 18.4711C28.9883 19.3557 29.7052 20.0727 30.5898 20.0727Z" fill="#C90708"/>
<path d="M8.18423 19.0842C8.22427 19.1806 8.2737 19.2732 8.33125 19.3595C8.38881 19.4477 8.45638 19.5297 8.5302 19.6029C8.82799 19.9025 9.24089 20.0727 9.66193 20.0727C9.76765 20.0727 9.87213 20.0627 9.97598 20.0421C10.0786 20.0214 10.1793 19.9908 10.2757 19.9507C10.372 19.9107 10.4646 19.8613 10.5509 19.8037C10.6391 19.7443 10.7211 19.6767 10.7943 19.6035C10.87 19.5297 10.9357 19.4477 10.9945 19.3601C11.0527 19.2732 11.1021 19.1806 11.1421 19.0842C11.1822 18.9867 11.2128 18.8859 11.2335 18.7846C11.2541 18.6807 11.2635 18.575 11.2635 18.4711C11.2635 18.3667 11.2541 18.2609 11.2335 18.159C11.2128 18.0564 11.1822 17.955 11.1421 17.8593C11.1021 17.7617 11.0527 17.6685 10.9945 17.5822C10.9357 17.4939 10.87 17.4126 10.7943 17.3388C10.7211 17.265 10.6391 17.198 10.5509 17.1399C10.4646 17.0823 10.372 17.0329 10.2757 16.9928C10.1793 16.9528 10.0786 16.9221 9.97598 16.9015C9.76953 16.8596 9.55682 16.8596 9.34975 16.9015C9.24715 16.9221 9.14642 16.9528 9.0507 16.9928C8.95248 17.0329 8.85989 17.0823 8.77356 17.1399C8.68535 17.198 8.60339 17.265 8.5302 17.3388C8.45638 17.4126 8.38881 17.4939 8.33125 17.5822C8.2737 17.6685 8.22427 17.7617 8.18423 17.8593C8.1442 17.955 8.11354 18.0564 8.0929 18.159C8.07162 18.2609 8.06036 18.3667 8.06036 18.4711C8.06036 18.575 8.07162 18.6807 8.0929 18.7846C8.11354 18.8859 8.1442 18.9867 8.18423 19.0842Z" fill="#C90708"/>
<path d="M14.5905 19.0842C14.6305 19.1806 14.6799 19.2732 14.7375 19.3595C14.7951 19.4477 14.8626 19.5297 14.9364 19.6029C15.2342 19.9025 15.6471 20.0727 16.0682 20.0727C16.1739 20.0727 16.2784 20.0627 16.3822 20.0421C16.4848 20.0214 16.5856 19.9908 16.6819 19.9507C16.7782 19.9107 16.8708 19.8613 16.9572 19.8037C17.0454 19.7443 17.1273 19.6767 17.2024 19.6035C17.2762 19.5297 17.3419 19.4477 17.4007 19.3601C17.4589 19.2732 17.5083 19.1806 17.5484 19.0842C17.5884 18.9867 17.6191 18.8859 17.6397 18.7846C17.6604 18.6807 17.6697 18.575 17.6697 18.4711C17.6697 18.3667 17.6604 18.2609 17.6397 18.159C17.6191 18.0564 17.5884 17.955 17.5484 17.8593C17.5083 17.7617 17.4589 17.6685 17.4007 17.5822C17.3419 17.4939 17.2762 17.4126 17.2024 17.3388C17.1273 17.265 17.0454 17.198 16.9572 17.1399C16.8708 17.0823 16.7782 17.0329 16.6819 16.9928C16.5856 16.9528 16.4848 16.9221 16.3822 16.9015C16.1758 16.8596 15.9631 16.8596 15.756 16.9015C15.6534 16.9221 15.5527 16.9528 15.457 16.9928C15.3587 17.0329 15.2661 17.0823 15.1798 17.1399C15.0916 17.198 15.0096 17.265 14.9364 17.3388C14.8626 17.4126 14.7951 17.4939 14.7375 17.5822C14.6799 17.6685 14.6305 17.7617 14.5905 17.8593C14.5504 17.955 14.5198 18.0564 14.4991 18.159C14.4779 18.2609 14.4666 18.3667 14.4666 18.4711C14.4666 18.575 14.4779 18.6807 14.4991 18.7846C14.5198 18.8859 14.5504 18.9867 14.5905 19.0842Z" fill="#C90708"/>
<path d="M20.9967 19.0842C21.0368 19.1806 21.0862 19.2732 21.1438 19.3595C21.2013 19.4477 21.2689 19.5297 21.3427 19.6029C21.4159 19.6767 21.4978 19.7443 21.5861 19.8031C21.6724 19.8613 21.765 19.9107 21.8632 19.9507C21.9589 19.9908 22.0596 20.0214 22.1622 20.0421C22.2648 20.0627 22.3706 20.0721 22.4744 20.0721C22.5802 20.0721 22.6846 20.0627 22.7885 20.0421C22.8911 20.0214 22.9918 19.9908 23.0882 19.9507C23.1845 19.9107 23.2771 19.8613 23.3653 19.8031C23.4516 19.7443 23.5336 19.6767 23.6087 19.6029C23.6825 19.5297 23.7482 19.4477 23.807 19.3595C23.8652 19.2732 23.9146 19.1806 23.9546 19.0842C23.9947 18.9867 24.0253 18.8859 24.046 18.7846C24.0666 18.6807 24.076 18.575 24.076 18.4705C24.076 18.3667 24.0666 18.2609 24.046 18.1583C24.0253 18.0557 23.9947 17.955 23.9546 17.8593C23.9146 17.7611 23.8652 17.6685 23.807 17.5822C23.7482 17.4939 23.6825 17.412 23.6087 17.3388C23.5336 17.265 23.4516 17.1974 23.3653 17.1399C23.2771 17.0823 23.1845 17.0329 23.0882 16.9928C22.9918 16.9528 22.8911 16.9221 22.7885 16.9015C22.582 16.8596 22.3693 16.8596 22.1622 16.9015C22.0596 16.9221 21.9589 16.9528 21.8632 16.9928C21.765 17.0329 21.6724 17.0823 21.5861 17.1399C21.4978 17.1974 21.4159 17.265 21.3427 17.3388C21.2689 17.412 21.2013 17.4939 21.1438 17.5822C21.0862 17.6685 21.0368 17.7611 20.9967 17.8593C20.9567 17.955 20.926 18.0557 20.9054 18.1583C20.8841 18.2609 20.8729 18.3667 20.8729 18.4705C20.8729 18.575 20.8841 18.6807 20.9054 18.7846C20.926 18.8859 20.9567 18.9867 20.9967 19.0842Z" fill="#C90708"/>
<path d="M46.5667 36.3649C45.8053 35.9144 44.8231 36.1672 44.3727 36.9285L34.8703 52.9973C34.4198 53.7587 34.672 54.7409 35.4333 55.1907C35.6892 55.3421 35.9701 55.4147 36.2472 55.4147C36.7947 55.4147 37.3283 55.1332 37.6273 54.6277L47.1298 38.5589C47.5802 37.7975 47.3281 36.8153 46.5667 36.3649Z" fill="#C90708"/>
<path d="M26.6028 41.072V39.4548C26.6028 38.5595 27.3311 37.8307 28.2263 37.8307H28.2488C29.1334 37.8307 29.8504 37.1137 29.8504 36.2291C29.8504 35.3451 29.1334 34.6276 28.2488 34.6276H28.2263C25.565 34.6276 23.3997 36.7934 23.3997 39.4548V41.072C23.3997 41.6544 23.1607 42.2225 22.7441 42.6297L20.6689 44.6599C20.363 44.9589 20.1897 45.368 20.1872 45.796C20.1853 46.2239 20.3542 46.6349 20.657 46.9377L22.7716 49.0516C23.1795 49.4589 23.406 50.0007 23.4104 50.5775L23.4216 52.256C23.4404 54.8992 25.6056 57.0501 28.2488 57.0501C29.1334 57.0501 29.8504 56.3325 29.8504 55.4485C29.8504 54.5639 29.1334 53.8469 28.2488 53.8469C27.3592 53.8469 26.631 53.1231 26.6247 52.2341L26.6135 50.5556C26.6035 49.1311 26.0429 47.7923 25.0363 46.7863L24.0666 45.8172L24.9844 44.9195C26.0129 43.9129 26.6028 42.5109 26.6028 41.072Z" fill="#C90708"/>
<path d="M55.3972 50.6056V52.2228C55.3972 53.1181 54.669 53.8469 53.7737 53.8469H53.7512C52.8666 53.8469 52.1497 54.5639 52.1497 55.4485C52.1497 56.3325 52.8666 57.05 53.7512 57.05H53.7737C56.4351 57.05 58.6003 54.8842 58.6003 52.2228V50.6056C58.6003 50.0232 58.8393 49.4551 59.256 49.0479L61.3311 47.0178C61.637 46.7187 61.8103 46.3096 61.8122 45.8817C61.8147 45.4537 61.6458 45.0427 61.343 44.7399L59.2284 42.626C58.8205 42.2187 58.5934 41.6763 58.5897 41.1001L58.5778 39.4216C58.5597 36.7784 56.3944 34.6282 53.7512 34.6282C52.8666 34.6282 52.1497 35.3451 52.1497 36.2297C52.1497 37.1137 52.8666 37.8313 53.7512 37.8313C54.6402 37.8313 55.369 38.5545 55.3747 39.4435L55.3866 41.122C55.3966 42.5459 55.9565 43.8847 56.9637 44.8913L57.9334 45.8604L57.0156 46.7581C55.9871 47.7641 55.3972 49.1667 55.3972 50.6056Z" fill="#C90708"/>
<path d="M73.8908 24.8774H8.10913C7.22452 24.8774 6.50757 25.595 6.50757 26.4789V64.9164C6.50757 65.8011 7.22452 66.518 8.10913 66.518H27.1734C28.058 66.518 28.7749 65.8011 28.7749 64.9164C28.7749 64.0325 28.058 63.3149 27.1734 63.3149H9.71069V28.0805H72.2892V63.3149H40.039C39.1544 63.3149 38.4375 64.0325 38.4375 64.9164C38.4375 65.8011 39.1544 66.518 40.039 66.518H73.8908C74.7754 66.518 75.4924 65.8011 75.4924 64.9164V26.4789C75.4924 25.595 74.7754 24.8774 73.8908 24.8774Z" fill="#C90708"/>
<path d="M35.1111 64.09C35.0711 63.9937 35.0217 63.9005 34.9635 63.8141C34.9059 63.7259 34.839 63.6446 34.7652 63.5708C34.6913 63.4969 34.61 63.43 34.5218 63.3718C34.4355 63.3143 34.3423 63.2648 34.2459 63.2248C34.1483 63.1848 34.0476 63.1529 33.9469 63.1316C33.7404 63.0916 33.5271 63.0916 33.3206 63.1316C33.218 63.1529 33.1173 63.1848 33.0197 63.2248C32.9234 63.2648 32.8302 63.3143 32.7438 63.3718C32.6556 63.43 32.5743 63.4969 32.5005 63.5708C32.4266 63.6446 32.3597 63.7259 32.3021 63.8141C32.244 63.9005 32.1945 63.9937 32.1545 64.09C32.1145 64.1876 32.0825 64.2883 32.0632 64.3909C32.0425 64.4935 32.0312 64.5993 32.0312 64.7031C32.0312 64.807 32.0425 64.9127 32.0632 65.0153C32.0825 65.1179 32.1145 65.2186 32.1545 65.315C32.1945 65.4126 32.244 65.5052 32.3021 65.5921C32.3597 65.6797 32.4266 65.7617 32.5005 65.8355C32.5743 65.9093 32.6556 65.9762 32.7438 66.0338C32.8302 66.0914 32.9234 66.1414 33.0197 66.1814C33.1173 66.2215 33.218 66.2534 33.3206 66.274C33.4232 66.2947 33.529 66.3047 33.6328 66.3047C34.0538 66.3047 34.4674 66.1333 34.7652 65.8349C34.839 65.7617 34.9059 65.6797 34.9635 65.5915C35.0217 65.5052 35.0711 65.4126 35.1111 65.3143C35.1512 65.2186 35.1831 65.1179 35.2037 65.0153C35.225 64.9127 35.2344 64.807 35.2344 64.7031C35.2344 64.5986 35.225 64.4929 35.2037 64.3909C35.1831 64.2883 35.1512 64.1876 35.1111 64.09Z" fill="#C90708"/>
</svg>
