<svg width="26" height="26" viewBox="0 0 26 26" fill="none" xmlns="http://www.w3.org/2000/svg">
<path d="M6.30676 3.77313C6.30676 5.15662 5.42381 6.28857 3.78406 6.28857C2.27043 6.28857 1.26135 5.15662 1.26135 3.8989C1.26135 2.51541 2.27043 1.25769 3.78406 1.25769C5.29768 1.25769 6.30676 2.38964 6.30676 3.77313ZM1.26135 23.8966H6.30676V7.54629H1.26135V23.8966ZM18.4157 7.79783C15.7669 7.79783 14.2533 9.30709 13.6226 10.3133H13.4965L13.2442 8.17514H8.70333C8.70333 9.55864 8.82946 11.1937 8.82946 13.0802V23.8966H13.8749V14.9668C13.8749 14.4637 13.8749 14.0864 14.001 13.7091C14.3794 12.8287 15.0101 11.6968 16.3976 11.6968C18.1635 11.6968 18.9203 13.206 18.9203 15.2184V23.8966H23.9657V14.5895C23.9657 9.93595 21.5691 7.79783 18.4157 7.79783Z" fill="white"/>
</svg>
