<svg width="65" height="65" viewBox="0 0 65 65" fill="none" xmlns="http://www.w3.org/2000/svg">
<path d="M39.3555 24.1211C38.6547 24.1211 38.0859 24.6898 38.0859 25.3906C38.0859 26.0914 38.6547 26.6602 39.3555 26.6602C40.0562 26.6602 40.625 26.0914 40.625 25.3906C40.625 24.6898 40.0562 24.1211 39.3555 24.1211Z" fill="#C90708"/>
<path d="M63.5122 56.3315L46.5665 39.3858C49.3271 35.2276 50.7812 30.4123 50.7812 25.3906C50.7812 11.3902 39.391 0 25.3906 0C11.3902 0 0 11.3902 0 25.3906C0 39.391 11.3902 50.7812 25.3906 50.7812C30.4124 50.7812 35.2277 49.327 39.3858 46.5667L44.0697 51.2506C44.0704 51.2512 44.071 51.2519 44.0718 51.2526L56.3314 63.5122C57.2909 64.4716 58.5659 65 59.9219 65C61.2779 65 62.5529 64.4716 63.5119 63.5126C64.4715 62.5537 65 61.2786 65 59.9219C65 58.5651 64.4715 57.29 63.5122 56.3315ZM38.7887 43.8911C38.7887 43.8912 38.7886 43.8913 38.7885 43.8914C34.8698 46.7377 30.2371 48.2422 25.3906 48.2422C12.7903 48.2422 2.53906 37.991 2.53906 25.3906C2.53906 12.7903 12.7903 2.53906 25.3906 2.53906C37.991 2.53906 48.2422 12.7903 48.2422 25.3906C48.2422 30.2371 46.7377 34.8698 43.8913 38.7886C42.4672 40.7504 40.7506 42.4672 38.7887 43.8911ZM41.4522 45.0421C42.7662 43.9672 43.9673 42.7661 45.0421 41.4522L48.6439 45.054C47.5485 46.3468 46.3468 47.5486 45.054 48.6439L41.4522 45.0421ZM61.7169 61.7169C61.237 62.1968 60.5996 62.4609 59.9219 62.4609C59.2442 62.4609 58.6068 62.1968 58.1269 61.7169L46.8541 50.4441C48.1397 49.3407 49.3407 48.1399 50.4439 46.8542L61.7171 58.1274C62.1967 58.6065 62.4609 59.2437 62.4609 59.9219C62.4609 60.6001 62.1968 61.2372 61.7169 61.7169Z" fill="#C90708"/>
<path d="M25.3906 5.07812C14.1902 5.07812 5.07812 14.1902 5.07812 25.3906C5.07812 36.5911 14.1902 45.7031 25.3906 45.7031C36.5911 45.7031 45.7031 36.5911 45.7031 25.3906C45.7031 14.1902 36.5911 5.07812 25.3906 5.07812ZM25.3906 43.1641C15.5904 43.1641 7.61719 35.1909 7.61719 25.3906C7.61719 15.5904 15.5904 7.61719 25.3906 7.61719C35.1909 7.61719 43.1641 15.5904 43.1641 25.3906C43.1641 35.1909 35.1909 43.1641 25.3906 43.1641Z" fill="#C90708"/>
<path d="M39.6176 19.9409C38.5244 17.0956 36.621 14.663 34.1129 12.9061C31.5452 11.1071 28.529 10.1562 25.3906 10.1562C24.6896 10.1562 24.1211 10.7247 24.1211 11.4258C24.1211 12.1268 24.6896 12.6953 25.3906 12.6953C30.6083 12.6953 35.3731 15.973 37.2475 20.8517C37.4415 21.3564 37.9226 21.6662 38.4329 21.6662C38.5842 21.6662 38.7382 21.6389 38.8879 21.5814C39.5424 21.3299 39.8691 20.5955 39.6176 19.9409Z" fill="#C90708"/>
</svg>
