<svg width="22" height="22" viewBox="0 0 22 22" fill="none" xmlns="http://www.w3.org/2000/svg">
    <path d="M20.6252 5.50005C20.6252 5.50005 19.8 5.50005 19.8 6.32521C19.8 7.15036 19.8 15.6755 19.8 15.6755C19.8 15.6755 19.8 16.5 20.6252 16.5H20.9V18.7H14.3V16.5H15.4V6.27H15.29L11.919 18.7H8.95023L5.60995 6.27H5.49998V16.5H6.59998V18.7H1.09998V16.5H1.37471C1.37471 16.5 2.19998 16.5 2.19998 15.6749C2.19998 14.8497 2.19998 6.32459 2.19998 6.32459C2.19998 6.32459 2.19998 5.50005 1.37471 5.50005H1.09998V3.30005H8.39741L10.957 12.8251H11.0413L13.6246 3.30005H20.9V5.50005H20.6252Z" fill="white"/>
</svg>
