<svg width="77" height="77" viewBox="0 0 77 77" fill="none" xmlns="http://www.w3.org/2000/svg">
<g clip-path="url(#clip0)">
<path d="M0.441066 12.0395C1.02759 11.453 1.98106 11.453 2.56759 12.0395C3.15561 12.6275 3.15561 13.5795 2.56759 14.166C1.98106 14.7541 1.02759 14.7541 0.441066 14.166C-0.146961 13.5795 -0.146961 12.6275 0.441066 12.0395Z" fill="#C90708"/>
<path d="M4.69428 3.53193C5.28231 2.94541 6.23429 2.94541 6.82231 3.53193C7.40884 4.11996 7.40884 5.07193 6.82231 5.65846C6.23429 6.24649 5.28231 6.24649 4.69428 5.65846C4.1076 5.07193 4.1076 4.11996 4.69428 3.53193Z" fill="#C90708"/>
<path d="M15.3284 1.40541C15.9164 0.818884 16.8684 0.818884 17.4564 1.40541C18.0429 1.99344 18.0429 2.94541 17.4564 3.53193C16.8684 4.11996 15.9164 4.11996 15.3284 3.53193C14.7417 2.94541 14.7417 1.99344 15.3284 1.40541Z" fill="#C90708"/>
<path d="M67.9801 67.0148C68.5681 66.4284 69.5201 66.4284 70.1081 67.0148C70.6946 67.6028 70.6946 68.5548 70.1081 69.1428C69.5201 69.7293 68.5681 69.7293 67.9801 69.1428C67.3937 68.5548 67.3937 67.6028 67.9801 67.0148Z" fill="#C90708"/>
<path d="M55.7526 54.5629C56.3471 53.983 57.2993 53.9946 57.8793 54.5891L65.8666 62.7749C66.4466 63.3692 66.4349 64.3213 65.8405 64.9015C65.548 65.1868 65.1691 65.3291 64.7904 65.3291C64.3992 65.3291 64.0085 65.1775 63.7139 64.8754L55.7266 56.6896C55.1466 56.0953 55.1584 55.1431 55.7526 54.5629Z" fill="#C90708"/>
<path d="M6.82199 35.4355L12.1266 30.1311C12.1345 30.123 12.1425 30.115 12.1506 30.107L18.5086 23.7491C18.5159 23.7416 18.5233 23.7342 18.5308 23.7269L24.8883 17.3694C24.8955 17.362 24.9029 17.3547 24.9102 17.3474L31.2695 10.9882C31.2766 10.9809 31.2838 10.9737 31.2912 10.9665L36.5977 5.65998C36.8797 5.37799 37.2623 5.21948 37.6611 5.21948C38.0599 5.21948 38.4425 5.37799 38.7245 5.65998L55.7381 22.6731L57.8668 24.8005C60.7976 27.7331 60.7975 32.5037 57.8665 35.4346L53.6118 39.6892C53.3279 39.9733 53.1715 40.3506 53.1715 40.7521C53.1715 41.1537 53.3279 41.5313 53.6118 41.8152L55.7099 43.9132L73.9283 60.2294C73.929 60.23 73.9296 60.2307 73.9304 60.2313C74.0847 60.3677 74.226 60.4999 74.3614 60.6351C77.8796 64.1534 77.8796 69.878 74.3614 73.3962C72.6597 75.0977 70.3938 76.035 67.9809 76.035C65.5682 76.035 63.3021 75.0979 61.6007 73.3965C61.4631 73.2591 61.3276 73.1142 61.1864 72.9539C61.1861 72.9536 61.1858 72.9532 61.1855 72.9527C61.1848 72.952 61.184 72.9512 61.1834 72.9505L45.0689 54.5411L42.9776 52.4497C42.3913 51.8634 41.4376 51.8636 40.8512 52.4498L36.5971 56.7023C35.1769 58.1234 33.2886 58.9061 31.2803 58.9061C29.272 58.9061 27.3837 58.1234 25.9642 56.703L23.8357 54.5762L6.82214 37.5625C6.23487 36.9752 6.23487 36.0229 6.82199 35.4355ZM63.4463 70.9692C63.5439 71.0798 63.6357 71.178 63.7271 71.2692C64.8608 72.4029 66.3713 73.027 67.9808 73.027C69.5902 73.027 71.1008 72.4029 72.2343 71.2692C74.5797 68.9238 74.5797 65.1074 72.2346 62.7624C72.1412 62.6692 72.0418 62.5762 71.9306 62.4782C71.9291 62.4768 71.9278 62.4753 71.9263 62.4739C71.9246 62.4724 71.9229 62.4714 71.9213 62.4699L54.7316 47.0751L48.2256 53.5812L63.4463 70.9692ZM28.0908 54.5763C28.9428 55.4289 30.0756 55.8984 31.2802 55.8984C32.4848 55.8984 33.6174 55.4289 34.47 54.5757L38.7244 50.3228C40.4832 48.564 43.3453 48.5642 45.1042 50.3228L46.1673 51.3859L52.548 45.0053L51.485 43.9424C50.6329 43.0901 50.1637 41.9572 50.1637 40.7523C50.1637 39.5473 50.633 38.4145 51.485 37.5623L55.7396 33.3078C57.4982 31.5493 57.4981 28.6866 55.74 26.9275L54.6754 25.8636L27.0264 53.5126L28.0908 54.5763ZM24.899 51.3861L52.5481 23.7369L37.6614 8.85021L34.4706 12.0411L41.9144 19.4837C42.5019 20.0709 42.5019 21.0231 41.9146 21.6106C41.6209 21.9043 41.236 22.0512 40.851 22.0512C40.4662 22.0512 40.0813 21.9043 39.7878 21.6107L32.3436 14.1679L28.0893 18.4221L35.5334 25.8648C36.1208 26.4519 36.1208 27.4042 35.5335 27.9916C35.2398 28.2853 34.855 28.4323 34.47 28.4323C34.0851 28.4323 33.7003 28.2853 33.4067 27.9918L25.9625 20.5489L21.7098 24.8017L29.1537 32.2444C29.7411 32.8315 29.7411 33.7838 29.1538 34.3712C28.8601 34.6649 28.4752 34.8118 28.0902 34.8118C27.7054 34.8118 27.3205 34.6649 27.027 34.3714L19.5829 26.9285L15.3287 31.1828L22.7726 38.6255C23.36 39.2126 23.36 40.1649 22.7727 40.7523C22.479 41.046 22.0942 41.1929 21.7092 41.1929C21.3243 41.1929 20.9395 41.046 20.6459 40.7524L13.2017 33.3096L10.0121 36.4992L24.899 51.3861Z" fill="#C90708"/>
<path d="M19.5827 5.65983C20.17 5.0727 21.1222 5.0727 21.7097 5.65983L25.9627 9.91288C26.55 10.5002 26.55 11.4524 25.9627 12.0399C25.6688 12.3334 25.284 12.4803 24.8991 12.4803C24.5143 12.4803 24.1293 12.3334 23.8357 12.0399L19.5827 7.7868C18.9954 7.19953 18.9954 6.24725 19.5827 5.65983Z" fill="#C90708"/>
<path d="M28.0902 1.40507C28.6775 0.818095 29.6298 0.817945 30.2171 1.40507L32.3436 3.53159C32.9309 4.11887 32.931 5.07114 32.3436 5.65857C32.0499 5.95228 31.665 6.09906 31.2802 6.09906C30.8953 6.09906 30.5103 5.95213 30.2168 5.65857L28.0902 3.53204C27.503 2.94477 27.5028 1.9925 28.0902 1.40507Z" fill="#C90708"/>
<path d="M8.94855 7.78629C9.53583 7.19917 10.4881 7.19917 11.0755 7.78629L19.5831 16.2939C20.1702 16.8812 20.1702 17.8336 19.583 18.4209C19.2892 18.7144 18.9044 18.8614 18.5196 18.8614C18.1347 18.8614 17.7497 18.7144 17.4561 18.4209L8.94855 9.91327C8.36128 9.32599 8.36128 8.37372 8.94855 7.78629Z" fill="#C90708"/>
<path d="M4.69382 16.2941C5.2811 15.7065 6.23322 15.7067 6.82064 16.2938L13.2017 22.6734C13.7891 23.2607 13.7891 24.2128 13.2019 24.8004C12.9082 25.0941 12.5233 25.241 12.1383 25.241C11.7535 25.241 11.3686 25.0941 11.075 24.8007L4.69397 18.4211C4.1067 17.8338 4.1067 16.8817 4.69382 16.2941Z" fill="#C90708"/>
<path d="M2.5675 26.9281C3.15477 26.341 4.10704 26.341 4.69432 26.9281L6.82084 29.0546C7.40811 29.6419 7.40811 30.5941 6.82084 31.1816C6.52712 31.4751 6.14227 31.6221 5.75743 31.6221C5.37258 31.6221 4.98758 31.4751 4.69402 31.1816L2.5675 29.0551C1.98023 28.4678 1.98023 27.5155 2.5675 26.9281Z" fill="#C90708"/>
</g>
<defs>
<clipPath id="clip0">
<rect width="77" height="77" fill="white" transform="matrix(-1 0 0 1 77 0)"/>
</clipPath>
</defs>
</svg>
