<svg width="53" height="53" viewBox="0 0 53 53" fill="none" xmlns="http://www.w3.org/2000/svg">
    <path d="M53 26.5C53 28.9424 52.788 30.9167 50.3456 30.9167H30.9167V50.3456C30.9167 52.7836 28.9424 53 26.5 53C24.0576 53 22.0833 52.7836 22.0833 50.3456V30.9167H2.65442C0.216416 30.9167 0 28.9424 0 26.5C0 24.0576 0.216416 22.0833 2.65442 22.0833H22.0833V2.65442C22.0833 0.211999 24.0576 0 26.5 0C28.9424 0 30.9167 0.211999 30.9167 2.65442V22.0833H50.3456C52.788 22.0833 53 24.0576 53 26.5Z" fill="white"/>
</svg>
