<svg width="29" height="32" viewBox="0 0 29 32" fill="none" xmlns="http://www.w3.org/2000/svg">
    <path d="M24.1667 22.6352C22.9429 22.6352 21.8389 23.1094 21.0018 23.8728L9.52167 17.1971C9.6106 16.8347 9.66667 16.4569 9.66667 16.0713C9.66667 15.6858 9.6106 15.3099 9.52167 14.9475L20.88 8.33735C21.7423 9.14121 22.8945 9.63856 24.1667 9.63856C26.8327 9.63856 29 7.47759 29 4.81928C29 2.16096 26.8327 0 24.1667 0C21.5006 0 19.3333 2.16096 19.3333 4.81928C19.3333 5.20482 19.3894 5.58265 19.4783 5.94313L8.12 12.5533C7.25773 11.7513 6.10547 11.252 4.83333 11.252C2.16727 11.252 0 13.413 0 16.0713C0 18.7296 2.16727 20.8906 4.83333 20.8906C6.10547 20.8906 7.25773 20.3933 8.12 19.5894L19.6001 26.2651C19.5189 26.6024 19.4706 26.9552 19.4706 27.3176C19.4706 29.9046 21.5721 32 24.1667 32C26.7612 32 28.8627 29.9027 28.8627 27.3176C28.8627 24.7325 26.7612 22.6352 24.1667 22.6352Z" fill="white"/>
</svg>
