<svg width="24" height="19" viewBox="0 0 24 19" fill="none" xmlns="http://www.w3.org/2000/svg">
<path d="M20.8325 4.68123C20.8426 4.88498 20.8464 5.09125 20.8464 5.295C20.8464 11.571 16.057 18.8054 7.29944 18.8054C4.60898 18.8054 2.10772 18.0193 0 16.6711C0.37336 16.7151 0.751766 16.7377 1.13522 16.7377C3.36781 16.7377 5.42003 15.9781 7.04843 14.7065C4.96594 14.6675 3.20636 13.2966 2.60091 11.41C2.89102 11.4641 3.18996 11.493 3.49647 11.493C3.93163 11.493 4.35293 11.4364 4.75151 11.3283C2.57316 10.8906 0.932139 8.97257 0.932139 6.67094C0.932139 6.65082 0.932139 6.63195 0.932139 6.61183C1.57417 6.96776 2.30954 7.18158 3.08905 7.20673C1.8113 6.354 0.96998 4.90259 0.96998 3.25372C0.96998 2.38464 1.20459 1.56838 1.61579 0.866569C3.96317 3.74046 7.47351 5.62955 11.4304 5.82827C11.3496 5.47988 11.308 5.11892 11.308 4.74537C11.308 2.12429 13.4384 0 16.0684 0C17.4382 0 18.6756 0.574778 19.5446 1.49794C20.6281 1.28413 21.6473 0.889207 22.5681 0.345873C22.2124 1.45392 21.4569 2.38464 20.4743 2.97199C21.4379 2.85628 22.3537 2.60348 23.2089 2.22491C22.5706 3.17826 21.7634 4.01338 20.8325 4.68123Z" fill="white"/>
</svg>
